<?xml version="1.0" encoding="UTF-8" standalone="no"?>
<svg
   id="Layer_1"
   data-name="Layer 1"
   viewBox="0 0 24 24"
   version="1.1"
   sodipodi:docname="analisarbranco.svg"
   inkscape:version="1.1.2 (0a00cf5339, 2022-02-04)"
   xmlns:inkscape="http://www.inkscape.org/namespaces/inkscape"
   xmlns:sodipodi="http://sodipodi.sourceforge.net/DTD/sodipodi-0.dtd"
   xmlns="http://www.w3.org/2000/svg"
   xmlns:svg="http://www.w3.org/2000/svg">
  <defs
     id="defs99" />
  <sodipodi:namedview
     id="namedview97"
     pagecolor="#ffffff"
     bordercolor="#666666"
     borderopacity="1.0"
     inkscape:pageshadow="2"
     inkscape:pageopacity="0.0"
     inkscape:pagecheckerboard="0"
     showgrid="false"
     inkscape:zoom="20.25"
     inkscape:cx="12"
     inkscape:cy="12"
     inkscape:window-width="1366"
     inkscape:window-height="696"
     inkscape:window-x="0"
     inkscape:window-y="0"
     inkscape:window-maximized="1"
     inkscape:current-layer="Layer_1" />
  <path
     d="m23.707,23.707c-.195.195-.451.293-.707.293s-.512-.098-.707-.293l-5.969-5.969c-1.725,1.412-3.927,2.262-6.324,2.262C4.486,20,0,15.514,0,10S4.486,0,10,0c3.009,0,5.705,1.342,7.54,3.452l-6.118,7.056-1.928-1.928c-.402-.402-.963-.616-1.524-.591-.566.026-1.1.291-1.462.726l-3.276,3.931c-.354.424-.296,1.055.128,1.408.188.156.414.232.64.232.287,0,.571-.123.77-.36l3.312-3.933,1.928,1.928c.396.396.948.606,1.505.592.561-.021,1.092-.276,1.458-.7l5.763-6.672c.804,1.44,1.267,3.095,1.267,4.858,0,2.398-.85,4.6-2.262,6.324l5.969,5.969c.391.391.391,1.023,0,1.414Zm-1.956-22.059c.361-.418.314-1.05-.104-1.411-.416-.359-1.048-.316-1.41.103l-2.698,3.111c.453.52.855,1.084,1.193,1.69l3.018-3.494Z"
     id="path94" />
  <path
     style="fill:#800080;stroke-width:0.0493827"
     d="m 22.765432,23.936691 c -0.210728,-0.04138 -0.381915,-0.203077 -3.30954,-3.125969 -1.698024,-1.69528 -3.103455,-3.082327 -3.123179,-3.082327 -0.01972,0 -0.218342,0.1353 -0.441371,0.300666 -1.34967,1.000719 -3.013158,1.662827 -4.703325,1.872036 -0.633448,0.07841 -1.9397637,0.06628 -2.5484639,-0.02366 C 6.4441541,19.553059 4.5083573,18.585132 2.9616126,17.038388 1.5571689,15.633944 0.64158232,13.928392 0.21279271,11.917894 0.08536716,11.320424 0.07753469,11.21008 0.0766574,10 0.07577501,8.7828993 0.08281453,8.6830425 0.21186186,8.0821062 0.83013931,5.2029644 2.5073213,2.8522335 4.9835072,1.3941887 7.3263659,0.01465045 10.209852,-0.33439372 12.830916,0.44426491 c 1.039555,0.30882813 2.22791,0.90717089 3.096296,1.55899999 0.444088,0.3333416 1.095232,0.9178138 1.357941,1.2188981 l 0.204618,0.2345087 -0.164639,0.195613 c -0.09055,0.1075872 -1.453527,1.6827479 -3.028836,3.5003568 L 11.432099,10.457385 10.345679,9.3844005 C 9.1593837,8.2127748 9.0106079,8.1078686 8.3794538,7.997958 7.8138519,7.8994627 7.1675185,8.0776074 6.7414232,8.4494375 6.6356351,8.5417531 5.7666494,9.5561486 4.8103434,10.70365 c -1.5449845,1.853874 -1.7453403,2.113886 -1.7979848,2.333333 -0.1790343,0.746298 0.4850552,1.422282 1.2163536,1.238139 0.1236956,-0.03115 0.2806796,-0.09318 0.3488535,-0.137847 0.068174,-0.04467 0.8783494,-0.977163 1.8003899,-2.072209 0.92204,-1.095046 1.6908953,-1.990992 1.7085664,-1.990992 0.017672,0 0.5124202,0.477119 1.099442,1.060265 1.167564,1.159855 1.318251,1.265624 1.952936,1.370795 0.640435,0.106124 1.302554,-0.123128 1.787137,-0.618777 0.138047,-0.1412 1.487704,-1.690061 2.999238,-3.4419126 1.511533,-1.7518518 2.769504,-3.1927861 2.795491,-3.2020765 0.06935,-0.024791 0.497754,0.9137477 0.729033,1.5971383 1.031623,3.0482681 0.494827,6.4683138 -1.420738,9.0518358 -0.165366,0.223029 -0.300666,0.422117 -0.300666,0.442418 0,0.0203 1.378446,1.41462 3.063214,3.098488 2.876551,2.875017 3.067559,3.076625 3.134533,3.308493 0.204448,0.707808 -0.412014,1.342986 -1.16071,1.19595 z"
     id="path291" />
  <path
     style="fill:#f2f2f2;stroke-width:0.0493827"
     d="M 18.63891,4.9316 C 18.504277,4.6700778 18.100164,4.08586 17.826101,3.7565409 L 17.575748,3.4557113 18.9803,1.8389668 c 0.772503,-0.88920952 1.448352,-1.64287383 1.501886,-1.67480957 0.649224,-0.38729443 1.496772,0.1086338 1.491763,0.87287977 -0.0017,0.2660235 -0.235582,0.5796161 -1.675465,2.2469136 -0.820957,0.9506173 -1.510959,1.7476153 -1.533339,1.7711062 -0.02238,0.023491 -0.07919,-0.032064 -0.126235,-0.1234568 z"
     id="path330" />
  <path
     style="fill:#f2f2f2;stroke-width:0.0493827"
     d="m 22.790123,23.916539 c -0.05432,-0.01476 -0.165432,-0.07336 -0.246913,-0.130228 -0.08148,-0.05687 -1.497527,-1.44316 -3.146767,-3.080654 -1.64924,-1.637494 -3.029258,-2.977262 -3.066706,-2.977262 -0.03745,0 -0.242793,0.125353 -0.456321,0.278561 -1.32591,0.951354 -2.728564,1.537168 -4.367243,1.823969 C 10.86739,19.942724 9.2080163,19.942548 8.5185185,19.830629 4.4818284,19.175247 1.3404645,16.277526 0.32395065,12.271605 0.12018088,11.46858 0.08605898,11.058403 0.11089926,9.7105254 0.13362029,8.477642 0.13500472,8.4643985 0.31294187,7.7777778 0.63745886,6.5255373 1.0796161,5.5047793 1.7140452,4.5432099 4.0461906,1.0085054 8.3506444,-0.66735457 12.436908,0.36846007 c 1.306545,0.33119218 2.698798,1.03085893 3.765335,1.89224203 0.493802,0.3988175 1.241316,1.1370177 1.219037,1.203851 -0.0097,0.029054 -1.359916,1.6040968 -3.000515,3.5000953 L 11.437858,10.411919 10.441293,9.4385447 C 9.8931832,8.9031891 9.3252207,8.3834607 9.1791546,8.2835926 8.6988015,7.9551669 8.0383575,7.8657195 7.4455891,8.0488069 6.8579195,8.2303195 6.8328474,8.2544227 5.1591437,10.246914 c -1.4104939,1.679147 -2.0468577,2.478953 -2.129228,2.676093 -0.1471065,0.352075 -0.033911,0.835663 0.2601535,1.11141 0.2843626,0.266651 0.6650564,0.348366 1.0648799,0.228576 0.239989,-0.0719 0.337249,-0.176041 2.1210637,-2.27107 0.7645531,-0.897941 1.4400094,-1.690648 1.5010149,-1.76157 l 0.110918,-0.128951 0.9835348,0.961645 c 0.5409442,0.528905 1.1060865,1.045945 1.2558715,1.148979 0.655392,0.450829 1.626659,0.434868 2.291272,-0.03765 0.289706,-0.205973 0.203091,-0.109315 3.408745,-3.8040016 1.390366,-1.6024692 2.571578,-2.9526218 2.624917,-3.0003388 0.09456,-0.08459 0.101335,-0.077799 0.27112,0.2716049 0.434339,0.8938267 0.735745,1.8464465 0.910238,2.876882 0.116146,0.68588 0.117485,2.1785945 0.0026,2.9212015 -0.248629,1.607393 -0.853777,3.07409 -1.829307,4.433696 -0.153209,0.213528 -0.278561,0.418725 -0.278561,0.455994 0,0.03727 1.339861,1.417287 2.977469,3.066707 1.637609,1.649419 3.031683,3.076324 3.097942,3.170898 0.269259,0.384318 0.09555,1.009672 -0.34254,1.23317 -0.208742,0.106493 -0.513186,0.159273 -0.671143,0.116354 z"
     id="path406" />
</svg>
