<?xml version="1.0" encoding="UTF-8"?>
<svg xmlns="http://www.w3.org/2000/svg" id="Layer_1" data-name="Layer 1" viewBox="0 0 24 24">
  <path d="m21.867,23.988l-5.944-5.943c-1.707,1.263-3.759,1.956-5.923,1.956C4.486,20,0,15.514,0,10S4.484.002,9.996,0c.001,0,.003,0,.004,0C12.112,0,14.071.662,15.687,1.785l-1.977,2.29c-1.077-.677-2.346-1.075-3.709-1.075h0c-3.859,0-7,3.14-7,7,0,.638.093,1.252.254,1.84l4.64-5.568,3.521,3.521L19.859.014l2.27,1.961-10.555,12.221-3.479-3.479-3.294,3.954c1.282,1.426,3.135,2.33,5.2,2.33,1.876,0,3.638-.732,4.961-2.062,0,0,0-.002.001-.002,1.056-1.061,1.723-2.405,1.947-3.858l2.837-3.285c.161.711.254,1.448.254,2.207,0,2.163-.692,4.216-1.955,5.924l5.944,5.943-2.121,2.121Z"/>
</svg>
