<?xml version="1.0" encoding="UTF-8" standalone="no"?>
<!-- Created with Inkscape (http://www.inkscape.org/) -->

<svg
   width="120"
   height="120"
   viewBox="0 0 120 120"
   version="1.1"
   id="svg1"
   inkscape:version="1.1.2 (0a00cf5339, 2022-02-04)"
   sodipodi:docname="ideia4.svg"
   xmlns:inkscape="http://www.inkscape.org/namespaces/inkscape"
   xmlns:sodipodi="http://sodipodi.sourceforge.net/DTD/sodipodi-0.dtd"
   xmlns="http://www.w3.org/2000/svg"
   xmlns:svg="http://www.w3.org/2000/svg">
  <sodipodi:namedview
     id="namedview1"
     pagecolor="#ffffff"
     bordercolor="#000000"
     borderopacity="0.25"
     inkscape:showpageshadow="2"
     inkscape:pageopacity="0.0"
     inkscape:pagecheckerboard="0"
     inkscape:deskcolor="#d1d1d1"
     inkscape:document-units="px"
     inkscape:zoom="4"
     inkscape:cx="42.25"
     inkscape:cy="51.75"
     inkscape:window-width="1366"
     inkscape:window-height="768"
     inkscape:window-x="0"
     inkscape:window-y="0"
     inkscape:window-maximized="1"
     inkscape:current-layer="g27"
     inkscape:pageshadow="2"
     showgrid="false" />
  <defs
     id="defs1">
    <inkscape:path-effect
       effect="simplify"
       id="path-effect22"
       is_visible="true"
       lpeversion="1.3"
       threshold="17.2414"
       steps="1"
       smooth_angles="360"
       helper_size="0"
       simplify_individual_paths="false"
       simplify_just_coalesce="false" />
    <inkscape:path-effect
       effect="simplify"
       id="path-effect20"
       is_visible="true"
       lpeversion="1.3"
       threshold="17.2414"
       steps="1"
       smooth_angles="360"
       helper_size="0"
       simplify_individual_paths="false"
       simplify_just_coalesce="false" />
    <inkscape:path-effect
       effect="simplify"
       id="path-effect6"
       is_visible="true"
       lpeversion="1.3"
       threshold="17.2414"
       steps="1"
       smooth_angles="360"
       helper_size="0"
       simplify_individual_paths="false"
       simplify_just_coalesce="false" />
    <inkscape:path-effect
       effect="simplify"
       id="path-effect5"
       is_visible="true"
       lpeversion="1.3"
       threshold="17.2414"
       steps="1"
       smooth_angles="360"
       helper_size="0"
       simplify_individual_paths="false"
       simplify_just_coalesce="false" />
    <inkscape:path-effect
       effect="simplify"
       id="path-effect4"
       is_visible="true"
       lpeversion="1.3"
       threshold="17.2414"
       steps="1"
       smooth_angles="360"
       helper_size="0"
       simplify_individual_paths="false"
       simplify_just_coalesce="false" />
    <inkscape:path-effect
       effect="simplify"
       id="path-effect3"
       is_visible="true"
       lpeversion="1.3"
       threshold="17.2414"
       steps="1"
       smooth_angles="360"
       helper_size="0"
       simplify_individual_paths="false"
       simplify_just_coalesce="false" />
    <inkscape:path-effect
       effect="simplify"
       id="path-effect2"
       is_visible="true"
       lpeversion="1.3"
       threshold="17.2414"
       steps="1"
       smooth_angles="360"
       helper_size="0"
       simplify_individual_paths="false"
       simplify_just_coalesce="false" />
  </defs>
  <g
     id="g27"
     inkscape:label="Logo"
     transform="matrix(1.6449693,0,0,1.6449693,-3.8834058,-29.327231)">
    <rect
       style="fill:#ffffff;fill-opacity:1;stroke:none;stroke-width:0.900294;stroke-linecap:round;stroke-linejoin:round;stroke-dasharray:none;paint-order:normal"
       id="rect5"
       width="73.079536"
       height="72.914101"
       x="2.5047762"
       y="17.979128"
       inkscape:label="Background" />
    <path
       id="path32"
       inkscape:label="Logo"
       d="M 14.148611 38.067701 C 13.238254 38.091241 12.31684 38.229038 11.402312 38.490391 C 5.5493236 40.163109 2.1377982 46.303602 3.8105097 52.156585 C 5.3426453 57.517692 10.633489 60.627835 16.007973 59.861184 L 19.294509 70.532925 L 19.294509 70.541237 L 23.316003 70.541237 L 23.320752 70.542424 L 27.728129 55.137976 L 27.058474 53.308297 L 25.200299 53.308297 L 21.279728 67.006549 L 18.8267 59.045486 C 20.517722 58.291459 21.956327 57.157668 23.060726 55.78151 L 20.746616 55.78151 L 19.777753 55.78151 L 19.073665 55.78151 C 18.358878 56.276291 17.555766 56.670725 16.670505 56.923724 C 12.34263 58.160572 7.8696493 55.677074 6.6327983 51.349199 C 5.3959464 47.021327 7.8806445 42.549534 12.20851 41.31268 C 13.019985 41.080768 13.836478 40.979636 14.635417 40.99685 C 14.901733 41.00255 15.165565 41.021014 15.427368 41.052654 C 18.568971 41.432399 21.316204 43.641299 22.243842 46.887205 C 22.402635 47.442834 22.49738 48.000164 22.537113 48.553032 L 24.173257 44.26795 L 24.255183 44.053043 C 22.564594 40.778153 19.349571 38.587908 15.771694 38.146065 C 15.237395 38.080085 14.694822 38.053571 14.148611 38.067701 z M 29.31678 38.923768 L 27.907416 43.847634 L 29.653982 48.408177 L 31.527592 41.857666 L 34.342757 41.857666 L 34.342757 38.924955 L 29.325091 38.924955 L 29.325091 38.926142 L 29.31678 38.923768 z M 35.988399 44.222831 C 35.157737 44.222831 34.396775 44.424775 33.744341 44.831933 C 33.092428 45.234521 32.584903 45.821988 32.23643 46.557126 A 0.44990148 0.44990148 0 0 0 32.234055 46.558314 C 31.889437 47.29541 31.722315 48.140013 31.722315 49.074271 L 31.722315 49.984954 C 31.722315 51.405407 32.086231 52.598137 32.838407 53.495896 A 0.44990148 0.44990148 0 0 0 32.838407 53.49827 C 33.59427 54.394649 34.649483 54.861328 35.87679 54.861328 C 36.988525 54.861328 37.940199 54.561503 38.65396 53.937583 C 39.370998 53.310175 39.791671 52.411462 39.918469 51.32664 A 0.44990148 0.44990148 0 0 0 39.470845 50.824398 L 38.214647 50.824398 A 0.44990148 0.44990148 0 0 0 37.769398 51.205532 C 37.657203 51.926782 37.434223 52.36371 37.181668 52.578088 C 36.918968 52.80061 36.50375 52.939037 35.87679 52.939037 C 35.222167 52.939037 34.797609 52.72219 34.441305 52.218326 C 34.080716 51.708399 33.87851 50.98895 33.87851 50.022949 L 33.87851 49.105141 C 33.87851 48.078707 34.095339 47.345294 34.465052 46.861083 L 34.465052 46.859896 C 34.842769 46.37182 35.301689 46.149871 35.988399 46.149871 C 36.561464 46.149871 36.935415 46.291015 37.197103 46.536942 A 0.44990148 0.44990148 0 0 0 37.199478 46.539316 C 37.45814 46.779503 37.669633 47.219885 37.769398 47.914247 A 0.44990148 0.44990148 0 0 0 38.214647 48.298943 L 39.470845 48.298943 A 0.44990148 0.44990148 0 0 0 39.919656 47.805012 C 39.811704 46.730099 39.411803 45.830657 38.716889 45.18932 C 38.018455 44.540774 37.079361 44.222831 35.988399 44.222831 z M 10.115244 44.353438 A 0.44990148 0.44990148 0 0 0 9.6640574 44.802249 L 9.6640574 54.280722 A 0.44990148 0.44990148 0 0 0 10.115244 54.731908 L 11.365504 54.731908 A 0.44990148 0.44990148 0 0 0 11.814316 54.280722 L 11.814316 50.589306 A 0.44990148 0.44990148 0 0 0 11.814316 50.588119 A 0.44990148 0.44990148 0 0 0 11.814316 50.586932 A 0.44990148 0.44990148 0 0 0 11.814316 50.585744 A 0.44990148 0.44990148 0 0 0 11.814316 50.584557 A 0.44990148 0.44990148 0 0 0 11.814316 50.58337 A 0.44990148 0.44990148 0 0 0 11.814316 50.582182 A 0.44990148 0.44990148 0 0 0 11.814316 50.580995 A 0.44990148 0.44990148 0 0 0 11.814316 50.579808 A 0.44990148 0.44990148 0 0 0 11.814316 50.57862 A 0.44990148 0.44990148 0 0 0 11.814316 50.577433 A 0.44990148 0.44990148 0 0 0 11.814316 50.576246 L 11.769197 49.125326 L 13.930142 54.451698 A 0.44990148 0.44990148 0 0 0 14.345708 54.731908 L 15.302698 54.731908 A 0.44990148 0.44990148 0 0 0 15.720639 54.451698 L 17.891082 49.095643 L 17.847151 50.57862 A 0.44990148 0.44990148 0 0 0 17.847151 50.589306 L 17.847151 54.280722 A 0.44990148 0.44990148 0 0 0 18.298337 54.731908 L 19.548598 54.731908 A 0.44990148 0.44990148 0 0 0 19.998597 54.280722 L 19.998597 44.802249 A 0.44990148 0.44990148 0 0 0 19.548598 44.353438 L 17.927889 44.353438 A 0.44990148 0.44990148 0 0 0 17.509948 44.634836 L 14.827765 51.32664 L 12.146769 44.634836 A 0.44990148 0.44990148 0 0 0 11.728828 44.353438 L 10.115244 44.353438 z M 25.574309 44.353438 A 0.44990148 0.44990148 0 0 0 25.153993 44.643147 L 21.535005 54.12162 A 0.44990148 0.44990148 0 0 0 21.95532 54.731908 L 23.243576 54.731908 A 0.44990148 0.44990148 0 0 0 23.666266 54.435075 L 24.451092 52.257508 L 27.791058 52.257508 L 28.590132 54.43745 A 0.44990148 0.44990148 0 0 0 29.011635 54.731908 L 30.295141 54.731908 A 0.44990148 0.44990148 0 0 0 30.71427 54.12162 L 27.088157 44.643147 A 0.44990148 0.44990148 0 0 0 26.667842 44.353438 L 25.574309 44.353438 z M 42.177962 44.353438 A 0.44990148 0.44990148 0 0 0 41.726776 44.802249 L 41.726776 54.280722 A 0.44990148 0.44990148 0 0 0 42.177962 54.731908 L 43.428223 54.731908 A 0.44990148 0.44990148 0 0 0 43.877034 54.280722 L 43.877034 50.349465 L 47.756049 50.349465 L 47.756049 54.280722 A 0.44990148 0.44990148 0 0 0 48.20486 54.731908 L 49.463432 54.731908 A 0.44990148 0.44990148 0 0 0 49.912244 54.280722 L 49.912244 44.802249 A 0.44990148 0.44990148 0 0 0 49.463432 44.353438 L 48.20486 44.353438 A 0.44990148 0.44990148 0 0 0 47.756049 44.802249 L 47.756049 48.427175 L 43.877034 48.427175 L 43.877034 44.802249 A 0.44990148 0.44990148 0 0 0 43.428223 44.353438 L 42.177962 44.353438 z M 52.773714 44.353438 A 0.44990148 0.44990148 0 0 0 52.323716 44.802249 L 52.323716 54.280722 A 0.44990148 0.44990148 0 0 0 52.773714 54.731908 L 54.023975 54.731908 A 0.44990148 0.44990148 0 0 0 54.472787 54.280722 L 54.472787 44.802249 A 0.44990148 0.44990148 0 0 0 54.023975 44.353438 L 52.773714 44.353438 z M 57.308136 44.353438 A 0.44990148 0.44990148 0 0 0 56.859325 44.802249 L 56.859325 54.280722 A 0.44990148 0.44990148 0 0 0 57.308136 54.731908 L 58.564334 54.731908 A 0.44990148 0.44990148 0 0 0 59.01552 54.280722 L 59.01552 48.487728 L 62.961025 54.527687 A 0.44990148 0.44990148 0 0 0 63.337409 54.731908 L 64.593606 54.731908 A 0.44990148 0.44990148 0 0 0 65.042418 54.280722 L 65.042418 44.802249 A 0.44990148 0.44990148 0 0 0 64.593606 44.353438 L 63.349282 44.353438 A 0.44990148 0.44990148 0 0 0 62.900471 44.802249 L 62.900471 50.627301 L 58.941905 44.556472 A 0.44990148 0.44990148 0 0 0 58.564334 44.353438 L 57.308136 44.353438 z M 67.814839 44.353438 A 0.44990148 0.44990148 0 0 0 67.363652 44.802249 L 67.363652 54.280722 A 0.44990148 0.44990148 0 0 0 67.814839 54.731908 L 73.8358 54.731908 A 0.44990148 0.44990148 0 0 0 74.284612 54.280722 L 74.284612 53.259617 A 0.44990148 0.44990148 0 0 0 73.8358 52.810805 L 69.513911 52.810805 L 69.513911 50.349465 L 73.172081 50.349465 A 0.44990148 0.44990148 0 0 0 73.620893 49.900654 L 73.620893 48.878361 A 0.44990148 0.44990148 0 0 0 73.172081 48.427175 L 69.513911 48.427175 L 69.513911 46.281665 L 73.771684 46.281665 A 0.44990148 0.44990148 0 0 0 74.220496 45.831666 L 74.220496 44.802249 A 0.44990148 0.44990148 0 0 0 73.771684 44.353438 L 67.814839 44.353438 z M 26.122856 47.66372 L 27.094094 50.330468 L 25.153993 50.330468 L 26.122856 47.66372 z M 29.398706 59.712767 A 0.44990148 0.44990148 0 0 0 28.948707 60.163953 L 28.948707 70.091238 A 0.44990148 0.44990148 0 0 0 29.398706 70.542424 L 30.70952 70.542424 A 0.44990148 0.44990148 0 0 0 31.158332 70.091238 L 31.158332 60.163953 A 0.44990148 0.44990148 0 0 0 30.70952 59.712767 L 29.398706 59.712767 z M 33.850014 59.712767 A 0.44990148 0.44990148 0 0 0 33.400015 60.163953 L 33.400015 70.091238 A 0.44990148 0.44990148 0 0 0 33.850014 70.542424 L 40.15831 70.542424 A 0.44990148 0.44990148 0 0 0 40.607122 70.091238 L 40.607122 69.021451 A 0.44990148 0.44990148 0 0 0 40.15831 68.57264 L 35.60964 68.57264 L 35.60964 65.953385 L 39.462533 65.953385 A 0.44990148 0.44990148 0 0 0 39.912532 65.503386 L 39.912532 64.431225 A 0.44990148 0.44990148 0 0 0 39.462533 63.982414 L 35.60964 63.982414 L 35.60964 61.690862 L 40.089445 61.690862 A 0.44990148 0.44990148 0 0 0 40.539444 61.239676 L 40.539444 60.163953 A 0.44990148 0.44990148 0 0 0 40.089445 59.712767 L 33.850014 59.712767 z M 41.799203 59.712767 A 0.44990148 0.44990148 0 0 0 41.361077 60.269626 L 43.761863 70.199285 A 0.44990148 0.44990148 0 0 0 44.198801 70.542424 L 45.39207 70.542424 A 0.44990148 0.44990148 0 0 0 45.824259 70.218282 L 47.665811 63.937295 L 49.440873 70.21472 A 0.44990148 0.44990148 0 0 0 49.873062 70.542424 L 51.066331 70.542424 A 0.44990148 0.44990148 0 0 0 51.504456 70.199285 L 53.912366 60.269626 A 0.44990148 0.44990148 0 0 0 53.47424 59.712767 L 52.158676 59.712767 A 0.44990148 0.44990148 0 0 0 51.718176 60.064217 L 50.337309 66.148107 L 48.65011 60.042845 A 0.44990148 0.44990148 0 0 0 48.216734 59.712767 L 47.111327 59.712767 A 0.44990148 0.44990148 0 0 0 46.679138 60.040471 L 44.949195 66.142171 L 43.546956 60.06303 A 0.44990148 0.44990148 0 0 0 43.10883 59.712767 L 41.799203 59.712767 z M 55.675554 59.712767 A 0.44990148 0.44990148 0 0 0 55.224368 60.163953 L 55.224368 70.091238 A 0.44990148 0.44990148 0 0 0 55.675554 70.542424 L 61.982663 70.542424 A 0.44990148 0.44990148 0 0 0 62.433849 70.091238 L 62.433849 69.021451 A 0.44990148 0.44990148 0 0 0 61.982663 68.57264 L 57.433993 68.57264 L 57.433993 65.953385 L 61.286886 65.953385 A 0.44990148 0.44990148 0 0 0 61.736885 65.503386 L 61.736885 64.431225 A 0.44990148 0.44990148 0 0 0 61.286886 63.982414 L 57.433993 63.982414 L 57.433993 61.690862 L 61.913798 61.690862 A 0.44990148 0.44990148 0 0 0 62.364984 61.239676 L 62.364984 60.163953 A 0.44990148 0.44990148 0 0 0 61.913798 59.712767 L 55.675554 59.712767 z M 64.353765 59.712767 A 0.44990148 0.44990148 0 0 0 63.903766 60.163953 L 63.903766 70.091238 A 0.44990148 0.44990148 0 0 0 64.353765 70.542424 L 65.669329 70.542424 A 0.44990148 0.44990148 0 0 0 66.120516 70.091238 L 66.120516 66.525679 L 67.732913 66.525679 L 69.762063 70.304957 A 0.44990148 0.44990148 0 0 0 70.158632 70.542424 L 71.562059 70.542424 A 0.44990148 0.44990148 0 0 0 72.012058 70.091238 L 72.012058 70.009312 A 0.44990148 0.44990148 0 0 0 71.955066 69.793217 L 69.804807 65.908266 C 70.248735 65.665222 70.700366 65.425114 70.986203 65.029641 C 71.377812 64.493514 71.576307 63.84845 71.576307 63.150094 C 71.576307 62.083995 71.220345 61.184383 70.507708 60.584269 C 69.802577 59.986653 68.826233 59.712767 67.640301 59.712767 L 64.353765 59.712767 z M 66.120516 61.690862 L 67.672359 61.690862 C 68.292887 61.694962 68.69788 61.838741 68.957052 62.071996 A 0.44990148 0.44990148 0 0 0 68.959427 62.074371 C 69.22333 62.308951 69.359558 62.626317 69.359558 63.150094 C 69.359558 63.611042 69.22826 63.906985 68.93568 64.161701 A 0.44990148 0.44990148 0 0 0 68.933306 64.161701 C 68.646428 64.414426 68.254378 64.554709 67.681857 64.554708 L 66.120516 64.554708 L 66.120516 61.690862 z "
       style="stroke:none;stroke-opacity:1;fill:#000000;fill-opacity:1" />
  </g>
</svg>
