<svg aria-roledescription="er" role="graphics-document document" viewBox="0 0 377.4783020019531 505" style="max-width: 377.478px; background-color: white;" xmlns:xlink="http://www.w3.org/1999/xlink" xmlns="http://www.w3.org/2000/svg" width="100%" id="my-svg"><style>#my-svg{font-family:"trebuchet ms",verdana,arial,sans-serif;font-size:16px;fill:#000000;}#my-svg .error-icon{fill:#552222;}#my-svg .error-text{fill:#552222;stroke:#552222;}#my-svg .edge-thickness-normal{stroke-width:1px;}#my-svg .edge-thickness-thick{stroke-width:3.5px;}#my-svg .edge-pattern-solid{stroke-dasharray:0;}#my-svg .edge-thickness-invisible{stroke-width:0;fill:none;}#my-svg .edge-pattern-dashed{stroke-dasharray:3;}#my-svg .edge-pattern-dotted{stroke-dasharray:2;}#my-svg .marker{fill:#000000;stroke:#000000;}#my-svg .marker.cross{stroke:#000000;}#my-svg svg{font-family:"trebuchet ms",verdana,arial,sans-serif;font-size:16px;}#my-svg p{margin:0;}#my-svg .entityBox{fill:#cde498;stroke:#13540c;}#my-svg .attributeBoxOdd{fill:#ffffff;stroke:#13540c;}#my-svg .attributeBoxEven{fill:#f2f2f2;stroke:#13540c;}#my-svg .relationshipLabelBox{fill:hsl(78.1578947368, 58.4615384615%, 84.5098039216%);opacity:0.7;background-color:hsl(78.1578947368, 58.4615384615%, 84.5098039216%);}#my-svg .relationshipLabelBox rect{opacity:0.5;}#my-svg .relationshipLine{stroke:#000000;}#my-svg .entityTitleText{text-anchor:middle;font-size:18px;fill:#000000;}#my-svg #MD_PARENT_START{fill:#f5f5f5!important;stroke:#000000!important;stroke-width:1;}#my-svg #MD_PARENT_END{fill:#f5f5f5!important;stroke:#000000!important;stroke-width:1;}#my-svg :root{--mermaid-font-family:"trebuchet ms",verdana,arial,sans-serif;}</style><g/><defs><marker orient="auto" markerHeight="240" markerWidth="190" refY="7" refX="0" id="MD_PARENT_START"><path d="M 18,7 L9,13 L1,7 L9,1 Z"/></marker></defs><defs><marker orient="auto" markerHeight="28" markerWidth="20" refY="7" refX="19" id="MD_PARENT_END"><path d="M 18,7 L9,13 L1,7 L9,1 Z"/></marker></defs><defs><marker orient="auto" markerHeight="18" markerWidth="18" refY="9" refX="0" id="ONLY_ONE_START"><path d="M9,0 L9,18 M15,0 L15,18" fill="none" stroke="gray"/></marker></defs><defs><marker orient="auto" markerHeight="18" markerWidth="18" refY="9" refX="18" id="ONLY_ONE_END"><path d="M3,0 L3,18 M9,0 L9,18" fill="none" stroke="gray"/></marker></defs><defs><marker orient="auto" markerHeight="18" markerWidth="30" refY="9" refX="0" id="ZERO_OR_ONE_START"><circle r="6" cy="9" cx="21" fill="white" stroke="gray"/><path d="M9,0 L9,18" fill="none" stroke="gray"/></marker></defs><defs><marker orient="auto" markerHeight="18" markerWidth="30" refY="9" refX="30" id="ZERO_OR_ONE_END"><circle r="6" cy="9" cx="9" fill="white" stroke="gray"/><path d="M21,0 L21,18" fill="none" stroke="gray"/></marker></defs><defs><marker orient="auto" markerHeight="36" markerWidth="45" refY="18" refX="18" id="ONE_OR_MORE_START"><path d="M0,18 Q 18,0 36,18 Q 18,36 0,18 M42,9 L42,27" fill="none" stroke="gray"/></marker></defs><defs><marker orient="auto" markerHeight="36" markerWidth="45" refY="18" refX="27" id="ONE_OR_MORE_END"><path d="M3,9 L3,27 M9,18 Q27,0 45,18 Q27,36 9,18" fill="none" stroke="gray"/></marker></defs><defs><marker orient="auto" markerHeight="36" markerWidth="57" refY="18" refX="18" id="ZERO_OR_MORE_START"><circle r="6" cy="18" cx="48" fill="white" stroke="gray"/><path d="M0,18 Q18,0 36,18 Q18,36 0,18" fill="none" stroke="gray"/></marker></defs><defs><marker orient="auto" markerHeight="36" markerWidth="57" refY="18" refX="39" id="ZERO_OR_MORE_END"><circle r="6" cy="18" cx="9" fill="white" stroke="gray"/><path d="M21,18 Q39,0 57,18 Q39,36 21,18" fill="none" stroke="gray"/></marker></defs><path style="stroke: gray; fill: none;" marker-start="url(#ZERO_OR_MORE_START)" marker-end="url(#ZERO_OR_MORE_END)" d="M56.173,151L52.566,159.333C48.958,167.667,41.743,184.333,40.631,201C39.518,217.667,44.508,234.333,47.003,242.667L49.498,251" class="er relationshipLine"/><path style="stroke: gray; fill: none;" marker-start="url(#ZERO_OR_ONE_START)" marker-end="url(#ONLY_ONE_END)" d="M124.868,251L127.742,242.667C130.615,234.333,136.361,217.667,135.08,201C133.799,184.333,125.49,167.667,121.336,159.333L117.182,151" class="er relationshipLine"/><path style="stroke: gray; fill: none;" marker-start="url(#ZERO_OR_MORE_START)" marker-end="url(#ZERO_OR_MORE_END)" d="M282.737,119.5L275.966,133.083C269.194,146.667,255.651,173.833,254.712,204.333C253.773,234.833,265.438,268.667,271.271,285.583L277.103,302.5" class="er relationshipLine"/><path style="stroke: gray; fill: none;" marker-start="url(#ZERO_OR_ONE_START)" marker-end="url(#ONLY_ONE_END)" d="M319.298,302.5L324.363,285.583C329.427,268.667,339.557,234.833,338.742,204.333C337.926,173.833,326.166,146.667,320.286,133.083L314.406,119.5" class="er relationshipLine"/><g transform="translate(20,20 )" id="entity-maquinacadastro-e1c2b6fb-0d94-5c4d-88ea-31d88af6def4"><rect height="131" width="129.056640625" y="0" x="0" class="er entityBox"/><text style="dominant-baseline: middle; text-anchor: middle; font-size: 12px;" transform="translate(64.5283203125,12)" y="0" x="0" id="text-entity-maquinacadastro-e1c2b6fb-0d94-5c4d-88ea-31d88af6def4" class="er entityLabel">maquina_cadastro</text><rect height="23" width="43.89069620768229" y="24" x="0" class="er attributeBoxOdd"/><text style="dominant-baseline: middle; font-size: 10.2px;" transform="translate(5,35.5)" y="0" x="0" id="text-entity-maquinacadastro-e1c2b6fb-0d94-5c4d-88ea-31d88af6def4-attr-1-type" class="er entityLabel">Int</text><rect height="23" width="55.22230021158854" y="24" x="43.89069620768229" class="er attributeBoxOdd"/><text style="dominant-baseline: middle; font-size: 10.2px;" transform="translate(48.89069620768229,35.5)" y="0" x="0" id="text-entity-maquinacadastro-e1c2b6fb-0d94-5c4d-88ea-31d88af6def4-attr-1-name" class="er entityLabel">id</text><rect height="23" width="29.943644205729168" y="24" x="99.11299641927083" class="er attributeBoxOdd"/><text style="dominant-baseline: middle; font-size: 10.2px;" transform="translate(104.11299641927083,35.5)" y="0" x="0" id="text-entity-maquinacadastro-e1c2b6fb-0d94-5c4d-88ea-31d88af6def4-attr-1-comment" class="er entityLabel">🗝️</text><rect height="21" width="43.89069620768229" y="47" x="0" class="er attributeBoxEven"/><text style="dominant-baseline: middle; font-size: 10.2px;" transform="translate(5,57.5)" y="0" x="0" id="text-entity-maquinacadastro-e1c2b6fb-0d94-5c4d-88ea-31d88af6def4-attr-2-type" class="er entityLabel">String</text><rect height="21" width="55.22230021158854" y="47" x="43.89069620768229" class="er attributeBoxEven"/><text style="dominant-baseline: middle; font-size: 10.2px;" transform="translate(48.89069620768229,57.5)" y="0" x="0" id="text-entity-maquinacadastro-e1c2b6fb-0d94-5c4d-88ea-31d88af6def4-attr-2-name" class="er entityLabel">ip</text><rect height="21" width="29.943644205729168" y="47" x="99.11299641927083" class="er attributeBoxEven"/><text style="dominant-baseline: middle; font-size: 10.2px;" transform="translate(104.11299641927083,57.5)" y="0" x="0" id="text-entity-maquinacadastro-e1c2b6fb-0d94-5c4d-88ea-31d88af6def4-attr-2-comment" class="er entityLabel"/><rect height="21" width="43.89069620768229" y="68" x="0" class="er attributeBoxOdd"/><text style="dominant-baseline: middle; font-size: 10.2px;" transform="translate(5,78.5)" y="0" x="0" id="text-entity-maquinacadastro-e1c2b6fb-0d94-5c4d-88ea-31d88af6def4-attr-3-type" class="er entityLabel">String</text><rect height="21" width="55.22230021158854" y="68" x="43.89069620768229" class="er attributeBoxOdd"/><text style="dominant-baseline: middle; font-size: 10.2px;" transform="translate(48.89069620768229,78.5)" y="0" x="0" id="text-entity-maquinacadastro-e1c2b6fb-0d94-5c4d-88ea-31d88af6def4-attr-3-name" class="er entityLabel">alias</text><rect height="21" width="29.943644205729168" y="68" x="99.11299641927083" class="er attributeBoxOdd"/><text style="dominant-baseline: middle; font-size: 10.2px;" transform="translate(104.11299641927083,78.5)" y="0" x="0" id="text-entity-maquinacadastro-e1c2b6fb-0d94-5c4d-88ea-31d88af6def4-attr-3-comment" class="er entityLabel"/><rect height="21" width="43.89069620768229" y="89" x="0" class="er attributeBoxEven"/><text style="dominant-baseline: middle; font-size: 10.2px;" transform="translate(5,99.5)" y="0" x="0" id="text-entity-maquinacadastro-e1c2b6fb-0d94-5c4d-88ea-31d88af6def4-attr-4-type" class="er entityLabel">String</text><rect height="21" width="55.22230021158854" y="89" x="43.89069620768229" class="er attributeBoxEven"/><text style="dominant-baseline: middle; font-size: 10.2px;" transform="translate(48.89069620768229,99.5)" y="0" x="0" id="text-entity-maquinacadastro-e1c2b6fb-0d94-5c4d-88ea-31d88af6def4-attr-4-name" class="er entityLabel">so</text><rect height="21" width="29.943644205729168" y="89" x="99.11299641927083" class="er attributeBoxEven"/><text style="dominant-baseline: middle; font-size: 10.2px;" transform="translate(104.11299641927083,99.5)" y="0" x="0" id="text-entity-maquinacadastro-e1c2b6fb-0d94-5c4d-88ea-31d88af6def4-attr-4-comment" class="er entityLabel"/><rect height="21" width="43.89069620768229" y="110" x="0" class="er attributeBoxOdd"/><text style="dominant-baseline: middle; font-size: 10.2px;" transform="translate(5,120.5)" y="0" x="0" id="text-entity-maquinacadastro-e1c2b6fb-0d94-5c4d-88ea-31d88af6def4-attr-5-type" class="er entityLabel">String</text><rect height="21" width="55.22230021158854" y="110" x="43.89069620768229" class="er attributeBoxOdd"/><text style="dominant-baseline: middle; font-size: 10.2px;" transform="translate(48.89069620768229,120.5)" y="0" x="0" id="text-entity-maquinacadastro-e1c2b6fb-0d94-5c4d-88ea-31d88af6def4-attr-5-name" class="er entityLabel">situacao</text><rect height="21" width="29.943644205729168" y="110" x="99.11299641927083" class="er attributeBoxOdd"/><text style="dominant-baseline: middle; font-size: 10.2px;" transform="translate(104.11299641927083,120.5)" y="0" x="0" id="text-entity-maquinacadastro-e1c2b6fb-0d94-5c4d-88ea-31d88af6def4-attr-5-comment" class="er entityLabel"/></g><g transform="translate(27.1611328125,251 )" id="entity-maquinastatus-9c5b7896-d3fc-5f3f-ae7c-579d2defa2fb"><rect height="234" width="114.734375" y="0" x="0" class="er entityBox"/><text style="dominant-baseline: middle; text-anchor: middle; font-size: 12px;" transform="translate(57.3671875,12)" y="0" x="0" id="text-entity-maquinastatus-9c5b7896-d3fc-5f3f-ae7c-579d2defa2fb" class="er entityLabel">maquina_status</text><rect height="21" width="51.14176940917969" y="24" x="0" class="er attributeBoxOdd"/><text style="dominant-baseline: middle; font-size: 10.2px;" transform="translate(5,34.5)" y="0" x="0" id="text-entity-maquinastatus-9c5b7896-d3fc-5f3f-ae7c-579d2defa2fb-attr-1-type" class="er entityLabel">Float</text><rect height="21" width="63.59260559082031" y="24" x="51.14176940917969" class="er attributeBoxOdd"/><text style="dominant-baseline: middle; font-size: 10.2px;" transform="translate(56.14176940917969,34.5)" y="0" x="0" id="text-entity-maquinastatus-9c5b7896-d3fc-5f3f-ae7c-579d2defa2fb-attr-1-name" class="er entityLabel">cputot</text><rect height="21" width="51.14176940917969" y="45" x="0" class="er attributeBoxEven"/><text style="dominant-baseline: middle; font-size: 10.2px;" transform="translate(5,55.5)" y="0" x="0" id="text-entity-maquinastatus-9c5b7896-d3fc-5f3f-ae7c-579d2defa2fb-attr-2-type" class="er entityLabel">String</text><rect height="21" width="63.59260559082031" y="45" x="51.14176940917969" class="er attributeBoxEven"/><text style="dominant-baseline: middle; font-size: 10.2px;" transform="translate(56.14176940917969,55.5)" y="0" x="0" id="text-entity-maquinastatus-9c5b7896-d3fc-5f3f-ae7c-579d2defa2fb-attr-2-name" class="er entityLabel">cpudet</text><rect height="21" width="51.14176940917969" y="66" x="0" class="er attributeBoxOdd"/><text style="dominant-baseline: middle; font-size: 10.2px;" transform="translate(5,76.5)" y="0" x="0" id="text-entity-maquinastatus-9c5b7896-d3fc-5f3f-ae7c-579d2defa2fb-attr-3-type" class="er entityLabel">Float</text><rect height="21" width="63.59260559082031" y="66" x="51.14176940917969" class="er attributeBoxOdd"/><text style="dominant-baseline: middle; font-size: 10.2px;" transform="translate(56.14176940917969,76.5)" y="0" x="0" id="text-entity-maquinastatus-9c5b7896-d3fc-5f3f-ae7c-579d2defa2fb-attr-3-name" class="er entityLabel">cputmp</text><rect height="21" width="51.14176940917969" y="87" x="0" class="er attributeBoxEven"/><text style="dominant-baseline: middle; font-size: 10.2px;" transform="translate(5,97.5)" y="0" x="0" id="text-entity-maquinastatus-9c5b7896-d3fc-5f3f-ae7c-579d2defa2fb-attr-4-type" class="er entityLabel">Float</text><rect height="21" width="63.59260559082031" y="87" x="51.14176940917969" class="er attributeBoxEven"/><text style="dominant-baseline: middle; font-size: 10.2px;" transform="translate(56.14176940917969,97.5)" y="0" x="0" id="text-entity-maquinastatus-9c5b7896-d3fc-5f3f-ae7c-579d2defa2fb-attr-4-name" class="er entityLabel">memtot</text><rect height="21" width="51.14176940917969" y="108" x="0" class="er attributeBoxOdd"/><text style="dominant-baseline: middle; font-size: 10.2px;" transform="translate(5,118.5)" y="0" x="0" id="text-entity-maquinastatus-9c5b7896-d3fc-5f3f-ae7c-579d2defa2fb-attr-5-type" class="er entityLabel">Float</text><rect height="21" width="63.59260559082031" y="108" x="51.14176940917969" class="er attributeBoxOdd"/><text style="dominant-baseline: middle; font-size: 10.2px;" transform="translate(56.14176940917969,118.5)" y="0" x="0" id="text-entity-maquinastatus-9c5b7896-d3fc-5f3f-ae7c-579d2defa2fb-attr-5-name" class="er entityLabel">memusa</text><rect height="21" width="51.14176940917969" y="129" x="0" class="er attributeBoxEven"/><text style="dominant-baseline: middle; font-size: 10.2px;" transform="translate(5,139.5)" y="0" x="0" id="text-entity-maquinastatus-9c5b7896-d3fc-5f3f-ae7c-579d2defa2fb-attr-6-type" class="er entityLabel">Float</text><rect height="21" width="63.59260559082031" y="129" x="51.14176940917969" class="er attributeBoxEven"/><text style="dominant-baseline: middle; font-size: 10.2px;" transform="translate(56.14176940917969,139.5)" y="0" x="0" id="text-entity-maquinastatus-9c5b7896-d3fc-5f3f-ae7c-579d2defa2fb-attr-6-name" class="er entityLabel">swptot</text><rect height="21" width="51.14176940917969" y="150" x="0" class="er attributeBoxOdd"/><text style="dominant-baseline: middle; font-size: 10.2px;" transform="translate(5,160.5)" y="0" x="0" id="text-entity-maquinastatus-9c5b7896-d3fc-5f3f-ae7c-579d2defa2fb-attr-7-type" class="er entityLabel">Float</text><rect height="21" width="63.59260559082031" y="150" x="51.14176940917969" class="er attributeBoxOdd"/><text style="dominant-baseline: middle; font-size: 10.2px;" transform="translate(56.14176940917969,160.5)" y="0" x="0" id="text-entity-maquinastatus-9c5b7896-d3fc-5f3f-ae7c-579d2defa2fb-attr-7-name" class="er entityLabel">swpusa</text><rect height="21" width="51.14176940917969" y="171" x="0" class="er attributeBoxEven"/><text style="dominant-baseline: middle; font-size: 10.2px;" transform="translate(5,181.5)" y="0" x="0" id="text-entity-maquinastatus-9c5b7896-d3fc-5f3f-ae7c-579d2defa2fb-attr-8-type" class="er entityLabel">Float</text><rect height="21" width="63.59260559082031" y="171" x="51.14176940917969" class="er attributeBoxEven"/><text style="dominant-baseline: middle; font-size: 10.2px;" transform="translate(56.14176940917969,181.5)" y="0" x="0" id="text-entity-maquinastatus-9c5b7896-d3fc-5f3f-ae7c-579d2defa2fb-attr-8-name" class="er entityLabel">dsktot</text><rect height="21" width="51.14176940917969" y="192" x="0" class="er attributeBoxOdd"/><text style="dominant-baseline: middle; font-size: 10.2px;" transform="translate(5,202.5)" y="0" x="0" id="text-entity-maquinastatus-9c5b7896-d3fc-5f3f-ae7c-579d2defa2fb-attr-9-type" class="er entityLabel">Float</text><rect height="21" width="63.59260559082031" y="192" x="51.14176940917969" class="er attributeBoxOdd"/><text style="dominant-baseline: middle; font-size: 10.2px;" transform="translate(56.14176940917969,202.5)" y="0" x="0" id="text-entity-maquinastatus-9c5b7896-d3fc-5f3f-ae7c-579d2defa2fb-attr-9-name" class="er entityLabel">dskusa</text><rect height="21" width="51.14176940917969" y="213" x="0" class="er attributeBoxEven"/><text style="dominant-baseline: middle; font-size: 10.2px;" transform="translate(5,223.5)" y="0" x="0" id="text-entity-maquinastatus-9c5b7896-d3fc-5f3f-ae7c-579d2defa2fb-attr-10-type" class="er entityLabel">Float</text><rect height="21" width="63.59260559082031" y="213" x="51.14176940917969" class="er attributeBoxEven"/><text style="dominant-baseline: middle; font-size: 10.2px;" transform="translate(56.14176940917969,223.5)" y="0" x="0" id="text-entity-maquinastatus-9c5b7896-d3fc-5f3f-ae7c-579d2defa2fb-attr-10-name" class="er entityLabel">dsktmp</text></g><g transform="translate(249.68690490722656,51.5 )" id="entity-grupos-5a5763cd-8756-5558-9c84-f102ff43cd16"><rect height="68" width="100" y="0" x="0" class="er entityBox"/><text style="dominant-baseline: middle; text-anchor: middle; font-size: 12px;" transform="translate(50,12)" y="0" x="0" id="text-entity-grupos-5a5763cd-8756-5558-9c84-f102ff43cd16" class="er entityLabel">grupos</text><rect height="23" width="38.358744303385414" y="24" x="0" class="er attributeBoxOdd"/><text style="dominant-baseline: middle; font-size: 10.2px;" transform="translate(5,35.5)" y="0" x="0" id="text-entity-grupos-5a5763cd-8756-5558-9c84-f102ff43cd16-attr-1-type" class="er entityLabel">Int</text><rect height="23" width="37.22956339518229" y="24" x="38.358744303385414" class="er attributeBoxOdd"/><text style="dominant-baseline: middle; font-size: 10.2px;" transform="translate(43.358744303385414,35.5)" y="0" x="0" id="text-entity-grupos-5a5763cd-8756-5558-9c84-f102ff43cd16-attr-1-name" class="er entityLabel">id</text><rect height="23" width="24.411692301432293" y="24" x="75.5883076985677" class="er attributeBoxOdd"/><text style="dominant-baseline: middle; font-size: 10.2px;" transform="translate(80.5883076985677,35.5)" y="0" x="0" id="text-entity-grupos-5a5763cd-8756-5558-9c84-f102ff43cd16-attr-1-comment" class="er entityLabel">🗝️</text><rect height="21" width="38.358744303385414" y="47" x="0" class="er attributeBoxEven"/><text style="dominant-baseline: middle; font-size: 10.2px;" transform="translate(5,57.5)" y="0" x="0" id="text-entity-grupos-5a5763cd-8756-5558-9c84-f102ff43cd16-attr-2-type" class="er entityLabel">String</text><rect height="21" width="37.22956339518229" y="47" x="38.358744303385414" class="er attributeBoxEven"/><text style="dominant-baseline: middle; font-size: 10.2px;" transform="translate(43.358744303385414,57.5)" y="0" x="0" id="text-entity-grupos-5a5763cd-8756-5558-9c84-f102ff43cd16-attr-2-name" class="er entityLabel">nome</text><rect height="21" width="24.411692301432293" y="47" x="75.5883076985677" class="er attributeBoxEven"/><text style="dominant-baseline: middle; font-size: 10.2px;" transform="translate(80.5883076985677,57.5)" y="0" x="0" id="text-entity-grupos-5a5763cd-8756-5558-9c84-f102ff43cd16-attr-2-comment" class="er entityLabel"/></g><g transform="translate(241.8955078125,302.5 )" id="entity-usuarios-c5d29035-d631-5ab3-8eb1-06db6b067294"><rect height="131" width="115.58279418945312" y="0" x="0" class="er entityBox"/><text style="dominant-baseline: middle; text-anchor: middle; font-size: 12px;" transform="translate(57.79139709472656,12)" y="0" x="0" id="text-entity-usuarios-c5d29035-d631-5ab3-8eb1-06db6b067294" class="er entityLabel">usuarios</text><rect height="23" width="36.947052001953125" y="24" x="0" class="er attributeBoxOdd"/><text style="dominant-baseline: middle; font-size: 10.2px;" transform="translate(5,35.5)" y="0" x="0" id="text-entity-usuarios-c5d29035-d631-5ab3-8eb1-06db6b067294-attr-1-type" class="er entityLabel">Int</text><rect height="23" width="55.6357421875" y="24" x="36.947052001953125" class="er attributeBoxOdd"/><text style="dominant-baseline: middle; font-size: 10.2px;" transform="translate(41.947052001953125,35.5)" y="0" x="0" id="text-entity-usuarios-c5d29035-d631-5ab3-8eb1-06db6b067294-attr-1-name" class="er entityLabel">id</text><rect height="23" width="23" y="24" x="92.58279418945312" class="er attributeBoxOdd"/><text style="dominant-baseline: middle; font-size: 10.2px;" transform="translate(97.58279418945312,35.5)" y="0" x="0" id="text-entity-usuarios-c5d29035-d631-5ab3-8eb1-06db6b067294-attr-1-comment" class="er entityLabel">🗝️</text><rect height="21" width="36.947052001953125" y="47" x="0" class="er attributeBoxEven"/><text style="dominant-baseline: middle; font-size: 10.2px;" transform="translate(5,57.5)" y="0" x="0" id="text-entity-usuarios-c5d29035-d631-5ab3-8eb1-06db6b067294-attr-2-type" class="er entityLabel">String</text><rect height="21" width="55.6357421875" y="47" x="36.947052001953125" class="er attributeBoxEven"/><text style="dominant-baseline: middle; font-size: 10.2px;" transform="translate(41.947052001953125,57.5)" y="0" x="0" id="text-entity-usuarios-c5d29035-d631-5ab3-8eb1-06db6b067294-attr-2-name" class="er entityLabel">nome</text><rect height="21" width="23" y="47" x="92.58279418945312" class="er attributeBoxEven"/><text style="dominant-baseline: middle; font-size: 10.2px;" transform="translate(97.58279418945312,57.5)" y="0" x="0" id="text-entity-usuarios-c5d29035-d631-5ab3-8eb1-06db6b067294-attr-2-comment" class="er entityLabel"/><rect height="21" width="36.947052001953125" y="68" x="0" class="er attributeBoxOdd"/><text style="dominant-baseline: middle; font-size: 10.2px;" transform="translate(5,78.5)" y="0" x="0" id="text-entity-usuarios-c5d29035-d631-5ab3-8eb1-06db6b067294-attr-3-type" class="er entityLabel">String</text><rect height="21" width="55.6357421875" y="68" x="36.947052001953125" class="er attributeBoxOdd"/><text style="dominant-baseline: middle; font-size: 10.2px;" transform="translate(41.947052001953125,78.5)" y="0" x="0" id="text-entity-usuarios-c5d29035-d631-5ab3-8eb1-06db6b067294-attr-3-name" class="er entityLabel">username</text><rect height="21" width="23" y="68" x="92.58279418945312" class="er attributeBoxOdd"/><text style="dominant-baseline: middle; font-size: 10.2px;" transform="translate(97.58279418945312,78.5)" y="0" x="0" id="text-entity-usuarios-c5d29035-d631-5ab3-8eb1-06db6b067294-attr-3-comment" class="er entityLabel"/><rect height="21" width="36.947052001953125" y="89" x="0" class="er attributeBoxEven"/><text style="dominant-baseline: middle; font-size: 10.2px;" transform="translate(5,99.5)" y="0" x="0" id="text-entity-usuarios-c5d29035-d631-5ab3-8eb1-06db6b067294-attr-4-type" class="er entityLabel">String</text><rect height="21" width="55.6357421875" y="89" x="36.947052001953125" class="er attributeBoxEven"/><text style="dominant-baseline: middle; font-size: 10.2px;" transform="translate(41.947052001953125,99.5)" y="0" x="0" id="text-entity-usuarios-c5d29035-d631-5ab3-8eb1-06db6b067294-attr-4-name" class="er entityLabel">email</text><rect height="21" width="23" y="89" x="92.58279418945312" class="er attributeBoxEven"/><text style="dominant-baseline: middle; font-size: 10.2px;" transform="translate(97.58279418945312,99.5)" y="0" x="0" id="text-entity-usuarios-c5d29035-d631-5ab3-8eb1-06db6b067294-attr-4-comment" class="er entityLabel"/><rect height="21" width="36.947052001953125" y="110" x="0" class="er attributeBoxOdd"/><text style="dominant-baseline: middle; font-size: 10.2px;" transform="translate(5,120.5)" y="0" x="0" id="text-entity-usuarios-c5d29035-d631-5ab3-8eb1-06db6b067294-attr-5-type" class="er entityLabel">String</text><rect height="21" width="55.6357421875" y="110" x="36.947052001953125" class="er attributeBoxOdd"/><text style="dominant-baseline: middle; font-size: 10.2px;" transform="translate(41.947052001953125,120.5)" y="0" x="0" id="text-entity-usuarios-c5d29035-d631-5ab3-8eb1-06db6b067294-attr-5-name" class="er entityLabel">senha</text><rect height="21" width="23" y="110" x="92.58279418945312" class="er attributeBoxOdd"/><text style="dominant-baseline: middle; font-size: 10.2px;" transform="translate(97.58279418945312,120.5)" y="0" x="0" id="text-entity-usuarios-c5d29035-d631-5ab3-8eb1-06db6b067294-attr-5-comment" class="er entityLabel"/></g><rect height="14" width="32.015625" y="193.22427368164062" x="24.6793212890625" class="er relationshipLabelBox"/><text style="text-anchor: middle; dominant-baseline: middle; font-size: 12px;" y="200.22427368164062" x="40.6871337890625" id="rel1" class="er relationshipLabel">status</text><rect height="14" width="46.357421875" y="192.9866943359375" x="111.81480407714844" class="er relationshipLabelBox"/><text style="text-anchor: middle; dominant-baseline: middle; font-size: 12px;" y="199.9866943359375" x="134.99351501464844" id="rel2" class="er relationshipLabel">maquina</text><rect height="14" width="39.68359375" y="202.8946990966797" x="234.83412170410156" class="er relationshipLabelBox"/><text style="text-anchor: middle; dominant-baseline: middle; font-size: 12px;" y="209.8946990966797" x="254.67591857910156" id="rel3" class="er relationshipLabel">usuario</text><rect height="14" width="31.017578125" y="203.152099609375" x="323.26043701171875" class="er relationshipLabelBox"/><text style="text-anchor: middle; dominant-baseline: middle; font-size: 12px;" y="210.152099609375" x="338.76922607421875" id="rel4" class="er relationshipLabel">grupo</text></svg>