<?xml version="1.0" encoding="UTF-8" standalone="no"?>
<!-- Created with Inkscape (http://www.inkscape.org/) -->

<svg
   width="120"
   height="53.425999"
   viewBox="0 0 120 53.425999"
   version="1.1"
   id="svg1"
   inkscape:version="1.3.2 (091e20ef0f, 2023-11-25)"
   sodipodi:docname="ideia5.svg"
   xmlns:inkscape="http://www.inkscape.org/namespaces/inkscape"
   xmlns:sodipodi="http://sodipodi.sourceforge.net/DTD/sodipodi-0.dtd"
   xmlns="http://www.w3.org/2000/svg"
   xmlns:svg="http://www.w3.org/2000/svg">
  <sodipodi:namedview
     id="namedview1"
     pagecolor="#ffffff"
     bordercolor="#000000"
     borderopacity="0.25"
     inkscape:showpageshadow="2"
     inkscape:pageopacity="0.0"
     inkscape:pagecheckerboard="0"
     inkscape:deskcolor="#d1d1d1"
     inkscape:document-units="px"
     inkscape:zoom="4"
     inkscape:cx="42.25"
     inkscape:cy="51.875"
     inkscape:window-width="1920"
     inkscape:window-height="1048"
     inkscape:window-x="0"
     inkscape:window-y="0"
     inkscape:window-maximized="1"
     inkscape:current-layer="g27" />
  <defs
     id="defs1">
    <inkscape:path-effect
       effect="simplify"
       id="path-effect22"
       is_visible="true"
       lpeversion="1.3"
       threshold="17.2414"
       steps="1"
       smooth_angles="360"
       helper_size="0"
       simplify_individual_paths="false"
       simplify_just_coalesce="false" />
    <inkscape:path-effect
       effect="simplify"
       id="path-effect20"
       is_visible="true"
       lpeversion="1.3"
       threshold="17.2414"
       steps="1"
       smooth_angles="360"
       helper_size="0"
       simplify_individual_paths="false"
       simplify_just_coalesce="false" />
    <inkscape:path-effect
       effect="simplify"
       id="path-effect6"
       is_visible="true"
       lpeversion="1.3"
       threshold="17.2414"
       steps="1"
       smooth_angles="360"
       helper_size="0"
       simplify_individual_paths="false"
       simplify_just_coalesce="false" />
    <inkscape:path-effect
       effect="simplify"
       id="path-effect5"
       is_visible="true"
       lpeversion="1.3"
       threshold="17.2414"
       steps="1"
       smooth_angles="360"
       helper_size="0"
       simplify_individual_paths="false"
       simplify_just_coalesce="false" />
    <inkscape:path-effect
       effect="simplify"
       id="path-effect4"
       is_visible="true"
       lpeversion="1.3"
       threshold="17.2414"
       steps="1"
       smooth_angles="360"
       helper_size="0"
       simplify_individual_paths="false"
       simplify_just_coalesce="false" />
    <inkscape:path-effect
       effect="simplify"
       id="path-effect3"
       is_visible="true"
       lpeversion="1.3"
       threshold="17.2414"
       steps="1"
       smooth_angles="360"
       helper_size="0"
       simplify_individual_paths="false"
       simplify_just_coalesce="false" />
    <inkscape:path-effect
       effect="simplify"
       id="path-effect2"
       is_visible="true"
       lpeversion="1.3"
       threshold="17.2414"
       steps="1"
       smooth_angles="360"
       helper_size="0"
       simplify_individual_paths="false"
       simplify_just_coalesce="false" />
  </defs>
  <g
     id="g27"
     inkscape:label="Logo"
     transform="matrix(1.6449693,0,0,1.6449693,-3.8834058,-29.327231)">
    <rect
       style="fill:#19134a;fill-opacity:0;stroke:none;stroke-width:0.899713;stroke-linecap:round;stroke-linejoin:round;stroke-dasharray:none;paint-order:normal"
       id="rect5"
       width="72.949692"
       height="72.949692"
       x="2.3607771"
       y="17.828438"
       inkscape:label="Background" />
    <path
       id="path32"
       inkscape:label="Logo"
       d="m 14.148611,17.832127 c -0.910357,0.02354 -1.831771,0.161337 -2.746299,0.42269 -5.8529884,1.672718 -9.2645138,7.813211 -7.5918023,13.666194 1.5321356,5.361107 6.8229793,8.47125 12.1974633,7.704599 l 3.286536,10.671741 v 0.0083 h 4.021494 l 0.0047,0.0012 4.407377,-15.404448 -0.669655,-1.829679 H 25.200299 L 21.279728,46.770975 18.8267,38.809912 c 1.691022,-0.754027 3.129627,-1.887818 4.234026,-3.263976 h -2.31411 -0.968863 -0.704088 c -0.714787,0.494781 -1.517899,0.889215 -2.40316,1.142214 C 12.34263,37.924998 7.8696493,35.4415 6.6327983,31.113625 5.3959464,26.785753 7.8806445,22.31396 12.20851,21.077106 c 0.811475,-0.231912 1.627968,-0.333044 2.426907,-0.31583 0.266316,0.0057 0.530148,0.02416 0.791951,0.0558 3.141603,0.379745 5.888836,2.588645 6.816474,5.834551 0.158793,0.555629 0.253538,1.112959 0.293271,1.665827 l 1.636144,-4.285082 0.08193,-0.214907 c -1.690589,-3.27489 -4.905612,-5.465135 -8.483489,-5.906978 -0.534299,-0.06598 -1.076872,-0.09249 -1.623083,-0.07836 z m 15.168169,0.856067 -1.409364,4.923866 1.746566,4.560543 1.87361,-6.550511 h 2.815165 v -2.932711 h -5.017666 v 0.0012 z m 6.671619,5.299063 c -0.830662,0 -1.591624,0.201944 -2.244058,0.609102 -0.651913,0.402588 -1.159438,0.990055 -1.507911,1.725193 a 0.44990148,0.44990148 0 0 0 -0.0024,0.0012 c -0.344618,0.737096 -0.51174,1.581699 -0.51174,2.515957 v 0.910683 c 0,1.420453 0.363916,2.613183 1.116092,3.510942 a 0.44990148,0.44990148 0 0 0 0,0.0024 c 0.755863,0.896379 1.811076,1.363058 3.038383,1.363058 1.111735,0 2.063409,-0.299825 2.77717,-0.923745 0.717038,-0.627408 1.137711,-1.526121 1.264509,-2.610943 A 0.44990148,0.44990148 0 0 0 39.47082,30.588862 h -1.256198 a 0.44990148,0.44990148 0 0 0 -0.445249,0.381134 c -0.112195,0.72125 -0.335175,1.158178 -0.58773,1.372556 -0.2627,0.222522 -0.677918,0.360949 -1.304878,0.360949 -0.654623,0 -1.079181,-0.216847 -1.435485,-0.720711 -0.360589,-0.509927 -0.562795,-1.229376 -0.562795,-2.195377 v -0.917808 c 0,-1.026434 0.216829,-1.759847 0.586542,-2.244058 v -0.0012 c 0.377717,-0.488076 0.836637,-0.710025 1.523347,-0.710025 0.573065,0 0.947016,0.141144 1.208704,0.387071 a 0.44990148,0.44990148 0 0 0 0.0024,0.0024 c 0.258662,0.240187 0.470155,0.680569 0.56992,1.374931 a 0.44990148,0.44990148 0 0 0 0.445249,0.384696 h 1.256198 a 0.44990148,0.44990148 0 0 0 0.448811,-0.493931 C 39.811704,26.494525 39.411803,25.595083 38.716889,24.953746 38.018455,24.3052 37.079361,23.987257 35.988399,23.987257 Z m -25.873155,0.130607 a 0.44990148,0.44990148 0 0 0 -0.4511866,0.448811 v 9.478473 a 0.44990148,0.44990148 0 0 0 0.4511866,0.451186 h 1.25026 a 0.44990148,0.44990148 0 0 0 0.448812,-0.451186 v -3.691416 a 0.44990148,0.44990148 0 0 0 0,-0.0012 0.44990148,0.44990148 0 0 0 0,-0.0012 0.44990148,0.44990148 0 0 0 0,-0.0012 0.44990148,0.44990148 0 0 0 0,-0.0012 0.44990148,0.44990148 0 0 0 0,-0.0012 0.44990148,0.44990148 0 0 0 0,-0.0012 0.44990148,0.44990148 0 0 0 0,-0.0012 0.44990148,0.44990148 0 0 0 0,-0.0012 0.44990148,0.44990148 0 0 0 0,-0.0012 0.44990148,0.44990148 0 0 0 0,-0.0012 0.44990148,0.44990148 0 0 0 0,-0.0012 l -0.04512,-1.45092 2.160945,5.326372 a 0.44990148,0.44990148 0 0 0 0.415566,0.28021 h 0.95699 a 0.44990148,0.44990148 0 0 0 0.417941,-0.28021 l 2.170443,-5.356055 -0.04393,1.482977 a 0.44990148,0.44990148 0 0 0 0,0.01069 v 3.691416 a 0.44990148,0.44990148 0 0 0 0.451186,0.451186 h 1.250261 a 0.44990148,0.44990148 0 0 0 0.449999,-0.451186 v -9.478473 a 0.44990148,0.44990148 0 0 0 -0.449999,-0.448811 h -1.620709 a 0.44990148,0.44990148 0 0 0 -0.417941,0.281398 l -2.682183,6.691804 -2.680996,-6.691804 a 0.44990148,0.44990148 0 0 0 -0.417941,-0.281398 z m 15.459065,0 a 0.44990148,0.44990148 0 0 0 -0.420316,0.289709 l -3.618988,9.478473 a 0.44990148,0.44990148 0 0 0 0.420315,0.610288 h 1.288256 a 0.44990148,0.44990148 0 0 0 0.42269,-0.296833 l 0.784826,-2.177567 h 3.339966 l 0.799074,2.179942 a 0.44990148,0.44990148 0 0 0 0.421503,0.294458 h 1.283506 a 0.44990148,0.44990148 0 0 0 0.419129,-0.610288 l -3.626113,-9.478473 a 0.44990148,0.44990148 0 0 0 -0.420315,-0.289709 z m 16.603653,0 a 0.44990148,0.44990148 0 0 0 -0.451186,0.448811 v 9.478473 a 0.44990148,0.44990148 0 0 0 0.451186,0.451186 h 1.250261 a 0.44990148,0.44990148 0 0 0 0.448811,-0.451186 v -3.931257 h 3.879015 v 3.931257 a 0.44990148,0.44990148 0 0 0 0.448811,0.451186 h 1.258572 a 0.44990148,0.44990148 0 0 0 0.448812,-0.451186 V 24.566675 A 0.44990148,0.44990148 0 0 0 49.463432,24.117864 H 48.20486 a 0.44990148,0.44990148 0 0 0 -0.448811,0.448811 v 3.624926 h -3.879015 v -3.624926 a 0.44990148,0.44990148 0 0 0 -0.448811,-0.448811 z m 10.595752,0 a 0.44990148,0.44990148 0 0 0 -0.449998,0.448811 v 9.478473 a 0.44990148,0.44990148 0 0 0 0.449998,0.451186 h 1.250261 a 0.44990148,0.44990148 0 0 0 0.448812,-0.451186 v -9.478473 a 0.44990148,0.44990148 0 0 0 -0.448812,-0.448811 z m 4.534422,0 a 0.44990148,0.44990148 0 0 0 -0.448811,0.448811 v 9.478473 a 0.44990148,0.44990148 0 0 0 0.448811,0.451186 h 1.256198 a 0.44990148,0.44990148 0 0 0 0.451186,-0.451186 v -5.792994 l 3.945505,6.039959 a 0.44990148,0.44990148 0 0 0 0.376384,0.204221 h 1.256197 a 0.44990148,0.44990148 0 0 0 0.448812,-0.451186 v -9.478473 a 0.44990148,0.44990148 0 0 0 -0.448812,-0.448811 h -1.244324 a 0.44990148,0.44990148 0 0 0 -0.448811,0.448811 v 5.825052 l -3.958566,-6.070829 a 0.44990148,0.44990148 0 0 0 -0.377571,-0.203034 z m 10.506703,0 a 0.44990148,0.44990148 0 0 0 -0.451187,0.448811 v 9.478473 a 0.44990148,0.44990148 0 0 0 0.451187,0.451186 H 73.8358 a 0.44990148,0.44990148 0 0 0 0.448812,-0.451186 V 33.024043 A 0.44990148,0.44990148 0 0 0 73.8358,32.575231 h -4.321889 v -2.46134 h 3.65817 a 0.44990148,0.44990148 0 0 0 0.448812,-0.448811 v -1.022293 a 0.44990148,0.44990148 0 0 0 -0.448812,-0.451186 h -3.65817 v -2.14551 h 4.257773 a 0.44990148,0.44990148 0 0 0 0.448812,-0.449999 v -1.029417 a 0.44990148,0.44990148 0 0 0 -0.448812,-0.448811 z m -41.691983,3.310282 0.971238,2.666748 h -1.940101 z m 3.27585,12.049047 a 0.44990148,0.44990148 0 0 0 -0.449999,0.451186 v 9.927285 a 0.44990148,0.44990148 0 0 0 0.449999,0.451186 h 1.310814 a 0.44990148,0.44990148 0 0 0 0.448812,-0.451186 V 39.928379 A 0.44990148,0.44990148 0 0 0 30.70952,39.477193 Z m 4.451308,0 a 0.44990148,0.44990148 0 0 0 -0.449999,0.451186 v 9.927285 a 0.44990148,0.44990148 0 0 0 0.449999,0.451186 h 6.308296 a 0.44990148,0.44990148 0 0 0 0.448812,-0.451186 V 48.785877 A 0.44990148,0.44990148 0 0 0 40.15831,48.337066 h -4.54867 v -2.619255 h 3.852893 a 0.44990148,0.44990148 0 0 0 0.449999,-0.449999 V 44.195651 A 0.44990148,0.44990148 0 0 0 39.462533,43.74684 H 35.60964 v -2.291552 h 4.479805 a 0.44990148,0.44990148 0 0 0 0.449999,-0.451186 v -1.075723 a 0.44990148,0.44990148 0 0 0 -0.449999,-0.451186 z m 7.949189,0 a 0.44990148,0.44990148 0 0 0 -0.438126,0.556859 l 2.400786,9.929659 a 0.44990148,0.44990148 0 0 0 0.436938,0.343139 h 1.193269 a 0.44990148,0.44990148 0 0 0 0.432189,-0.324142 l 1.841552,-6.280987 1.775062,6.277425 a 0.44990148,0.44990148 0 0 0 0.432189,0.327704 h 1.193269 a 0.44990148,0.44990148 0 0 0 0.438125,-0.343139 l 2.40791,-9.929659 A 0.44990148,0.44990148 0 0 0 53.47424,39.477193 h -1.315564 a 0.44990148,0.44990148 0 0 0 -0.4405,0.35145 l -1.380867,6.08389 -1.687199,-6.105262 a 0.44990148,0.44990148 0 0 0 -0.433376,-0.330078 h -1.105407 a 0.44990148,0.44990148 0 0 0 -0.432189,0.327704 l -1.729943,6.1017 -1.402239,-6.079141 A 0.44990148,0.44990148 0 0 0 43.10883,39.477193 Z m 13.876351,0 a 0.44990148,0.44990148 0 0 0 -0.451186,0.451186 v 9.927285 a 0.44990148,0.44990148 0 0 0 0.451186,0.451186 h 6.307109 a 0.44990148,0.44990148 0 0 0 0.451186,-0.451186 v -1.069787 a 0.44990148,0.44990148 0 0 0 -0.451186,-0.448811 h -4.54867 v -2.619255 h 3.852893 a 0.44990148,0.44990148 0 0 0 0.449999,-0.449999 V 44.195651 A 0.44990148,0.44990148 0 0 0 61.286886,43.74684 h -3.852893 v -2.291552 h 4.479805 a 0.44990148,0.44990148 0 0 0 0.451186,-0.451186 v -1.075723 a 0.44990148,0.44990148 0 0 0 -0.451186,-0.451186 z m 8.678211,0 a 0.44990148,0.44990148 0 0 0 -0.449999,0.451186 v 9.927285 a 0.44990148,0.44990148 0 0 0 0.449999,0.451186 h 1.315564 a 0.44990148,0.44990148 0 0 0 0.451187,-0.451186 v -3.565559 h 1.612397 l 2.02915,3.779278 a 0.44990148,0.44990148 0 0 0 0.396569,0.237467 h 1.403427 a 0.44990148,0.44990148 0 0 0 0.449999,-0.451186 v -0.08193 a 0.44990148,0.44990148 0 0 0 -0.05699,-0.216095 l -2.150259,-3.884951 c 0.443928,-0.243044 0.895559,-0.483152 1.181396,-0.878625 0.391609,-0.536127 0.590104,-1.181191 0.590104,-1.879547 0,-1.066099 -0.355962,-1.965711 -1.068599,-2.565825 -0.705131,-0.597616 -1.681475,-0.871502 -2.867407,-0.871502 z m 1.766751,1.978095 h 1.551843 c 0.620528,0.0041 1.025521,0.147879 1.284693,0.381134 a 0.44990148,0.44990148 0 0 0 0.0024,0.0024 c 0.263903,0.23458 0.400131,0.551946 0.400131,1.075723 0,0.460948 -0.131298,0.756891 -0.423878,1.011607 a 0.44990148,0.44990148 0 0 0 -0.0024,0 c -0.286878,0.252725 -0.678928,0.393008 -1.251449,0.393007 h -1.561341 z"
       style="fill:#ffffff;fill-opacity:1;stroke:none;stroke-opacity:1" />
  </g>
</svg>
