<?xml version="1.0" encoding="UTF-8" standalone="no"?>
<svg
   version="1.0"
   width="1600.000000pt"
   height="800.000000pt"
   viewBox="0 0 1600.000000 800.000000"
   preserveAspectRatio="xMidYMid meet"
   id="svg658"
   sodipodi:docname="logobranco.svg"
   inkscape:version="1.1.2 (0a00cf5339, 2022-02-04)"
   xmlns:inkscape="http://www.inkscape.org/namespaces/inkscape"
   xmlns:sodipodi="http://sodipodi.sourceforge.net/DTD/sodipodi-0.dtd"
   xmlns="http://www.w3.org/2000/svg"
   xmlns:svg="http://www.w3.org/2000/svg">
  <defs
     id="defs662" />
  <sodipodi:namedview
     id="namedview660"
     pagecolor="#ffffff"
     bordercolor="#666666"
     borderopacity="1.0"
     inkscape:pageshadow="2"
     inkscape:pageopacity="0.0"
     inkscape:pagecheckerboard="0"
     inkscape:document-units="pt"
     showgrid="false"
     inkscape:snap-global="false"
     inkscape:zoom="0.485625"
     inkscape:cx="1066.6667"
     inkscape:cy="368.59717"
     inkscape:window-width="1366"
     inkscape:window-height="696"
     inkscape:window-x="0"
     inkscape:window-y="0"
     inkscape:window-maximized="1"
     inkscape:current-layer="svg658" />
  <g
     transform="matrix(0.1,0,0,-0.1,16.962401,756.71877)"
     fill="#000000"
     stroke="none"
     id="g656"
     style="fill:#f2f2f2">
    <path
       d="m 1840,5771 c -183,-27 -365,-98 -525,-204 -84,-57 -252,-227 -315,-321 -244,-365 -276,-821 -83,-1212 135,-274 391,-494 689,-592 144,-47 214,-57 400,-57 h 170 l 179,-582 179,-583 h 158 c 115,0 158,3 158,12 0,30 -104,394 -226,790 -74,241 -134,444 -134,453 0,8 6,15 13,15 17,0 170,92 236,143 63,48 201,184 201,198 0,5 -90,9 -211,9 h -211 l -60,-35 c -158,-93 -259,-119 -458,-120 -143,0 -162,2 -245,29 -168,53 -283,124 -401,248 -281,295 -322,745 -99,1089 118,182 289,308 511,375 79,24 106,27 234,27 121,1 158,-3 224,-21 273,-78 469,-243 586,-496 21,-44 46,-115 55,-156 10,-41 20,-88 24,-104 6,-26 12,-16 51,85 24,63 65,170 92,237 46,121 47,125 31,155 -66,129 -224,308 -353,398 -135,96 -279,161 -441,199 -103,24 -329,35 -429,21 z"
       id="path628"
       style="fill:#f2f2f2" />
    <path
       d="m 10070,5298 c -135,-266 -308,-608 -385,-760 -77,-153 -142,-278 -145,-278 -3,0 -10,10 -15,23 -6,12 -103,203 -215,425 l -203,402 h -203 c -188,0 -202,-1 -197,-17 3,-10 166,-337 362,-728 l 356,-710 h 115 115 l 451,900 451,900 156,3 157,3 v 159 160 h -278 -278 z"
       id="path630"
       style="fill:#f2f2f2" />
    <path
       d="m 10513,5105 -23,-16 v -568 c 0,-428 3,-570 12,-579 8,-8 47,-12 110,-12 86,0 98,2 108,19 6,13 10,213 10,579 0,508 -2,561 -17,573 -25,22 -172,24 -200,4 z"
       id="path632"
       style="fill:#f2f2f2" />
    <path
       d="m 11008,5113 c -37,-10 -39,-43 -36,-604 2,-445 6,-549 17,-562 12,-15 51,-17 382,-17 h 368 l 15,22 c 23,32 22,139 -2,167 -17,22 -23,22 -275,22 h -257 v 145 144 h 218 c 262,0 252,-4 252,112 0,112 9,108 -253,108 h -217 v 125 125 h 254 c 301,0 286,-5 286,104 0,120 30,111 -382,113 -194,0 -360,-1 -370,-4 z"
       id="path634"
       style="fill:#f2f2f2" />
    <path
       d="m 11872,5104 c -33,-23 -39,13 84,-494 25,-102 65,-270 90,-375 25,-104 53,-215 62,-245 l 17,-55 h 100 100 l 25,75 c 14,42 61,200 105,353 44,152 82,277 85,277 3,0 11,-21 18,-47 64,-243 178,-632 190,-645 12,-15 32,-18 102,-18 58,0 91,4 98,13 6,6 22,59 36,117 14,58 48,200 76,315 28,116 65,266 81,335 17,69 43,178 59,243 34,134 31,152 -25,163 -49,9 -163,0 -176,-13 -11,-11 -31,-93 -129,-533 -17,-74 -32,-139 -34,-145 -4,-11 -9,6 -82,270 -114,412 -109,399 -135,412 -13,7 -49,13 -79,13 -101,0 -91,17 -201,-365 -54,-187 -98,-338 -99,-335 0,3 -35,156 -78,340 -89,383 -76,360 -197,360 -48,0 -78,-5 -93,-16 z"
       id="path636"
       style="fill:#f2f2f2" />
    <path
       d="m 13400,5107 -25,-13 -3,-568 c -1,-412 1,-573 9,-582 9,-11 82,-14 385,-14 359,0 374,1 384,19 14,28 13,154 -2,174 -11,14 -44,16 -263,18 -137,1 -256,4 -262,6 -10,4 -13,42 -13,144 v 139 h 216 c 129,0 223,4 235,10 16,9 19,22 19,95 0,63 -4,87 -16,99 -13,14 -49,16 -235,16 h -219 v 125 125 h 253 c 189,0 258,3 271,13 14,10 16,26 14,97 -3,79 -5,85 -28,97 -36,18 -684,18 -720,0 z"
       id="path638"
       style="fill:#f2f2f2" />
    <path
       d="m 14350,5108 -25,-14 -3,-562 c -1,-377 1,-569 8,-583 10,-17 22,-19 108,-19 63,0 102,4 110,12 9,9 12,72 12,220 v 208 h 89 89 l 35,-62 c 19,-35 59,-108 88,-163 29,-55 67,-125 84,-155 l 31,-55 104,-3 c 90,-2 107,0 117,15 7,9 13,25 13,36 0,10 -44,98 -99,195 -147,264 -138,242 -110,264 62,49 104,98 128,148 23,49 26,67 25,160 0,84 -4,114 -21,151 -42,92 -112,151 -225,190 -55,19 -91,22 -298,26 -184,3 -240,1 -260,-9 z m 496,-231 c 49,-26 68,-63 69,-134 0,-47 -5,-68 -21,-90 -38,-52 -76,-63 -211,-63 h -123 v 156 156 l 128,-4 c 92,-3 136,-9 158,-21 z"
       id="path640"
       style="fill:#f2f2f2" />
    <path
       d="m 4286,5099 c -164,-24 -296,-140 -356,-312 -31,-86 -40,-355 -16,-467 34,-160 125,-284 253,-342 53,-24 85,-31 157,-35 248,-15 422,115 466,347 7,34 5,50 -6,68 -13,20 -22,22 -104,22 -90,0 -120,-11 -120,-45 0,-31 -33,-112 -56,-136 -44,-46 -158,-64 -227,-35 -39,16 -91,73 -111,121 -40,94 -45,337 -10,442 36,110 92,156 196,161 115,7 168,-31 199,-144 10,-37 24,-71 31,-76 7,-4 52,-8 100,-8 80,0 89,2 102,23 29,45 -21,205 -90,286 -83,99 -253,153 -408,130 z"
       id="path642"
       style="fill:#f2f2f2" />
    <path
       d="m 1490,5071 c -6,-13 -10,-205 -10,-554 0,-623 -12,-567 116,-567 49,0 87,5 97,13 15,11 17,44 19,302 l 3,290 119,-293 c 73,-179 126,-297 137,-303 26,-13 132,-11 152,4 9,6 71,145 137,307 l 119,295 1,-292 c 0,-251 2,-294 16,-307 24,-25 175,-23 197,2 15,17 17,70 17,558 0,407 -3,543 -12,552 -17,17 -232,17 -246,0 -5,-7 -76,-179 -157,-381 -81,-202 -149,-367 -150,-365 -2,2 -67,163 -145,358 -78,195 -148,365 -156,378 -14,21 -21,22 -129,22 -103,0 -115,-2 -125,-19 z"
       id="path644"
       style="fill:#f2f2f2" />
    <path
       d="m 3186,5068 c -8,-13 -51,-120 -96,-238 -45,-118 -99,-260 -120,-315 -149,-386 -190,-498 -190,-514 0,-37 32,-51 114,-51 42,0 86,4 96,10 18,10 31,40 80,180 12,36 27,71 33,78 8,10 53,12 184,12 l 173,-2 14,-26 c 7,-15 28,-70 46,-122 18,-52 42,-103 52,-112 31,-27 178,-26 203,2 22,24 20,32 -43,195 -27,72 -113,295 -190,496 -77,202 -146,380 -154,395 -13,28 -16,29 -100,32 -81,3 -88,1 -102,-20 z m 148,-477 c 25,-68 47,-131 48,-139 3,-12 -14,-14 -96,-14 -54,0 -100,3 -102,5 -3,2 5,29 16,58 12,30 31,81 42,114 32,94 38,108 43,104 2,-3 24,-60 49,-128 z"
       id="path646"
       style="fill:#f2f2f2" />
    <path
       d="m 5005,5066 c -14,-20 -15,-89 -13,-555 3,-620 -9,-561 123,-561 120,0 115,-11 115,258 v 222 h 215 215 v -230 c 0,-268 -8,-250 118,-250 64,0 82,4 95,18 15,17 17,70 17,558 0,407 -3,543 -12,552 -17,17 -192,16 -207,-1 -7,-9 -12,-89 -13,-223 l -3,-209 h -210 -210 l -3,209 c -1,134 -6,214 -13,223 -8,9 -39,13 -105,13 -87,0 -95,-2 -109,-24 z"
       id="path648"
       style="fill:#f2f2f2" />
    <path
       d="m 6172,5078 c -9,-9 -12,-146 -12,-554 0,-480 2,-544 16,-558 24,-25 175,-23 197,2 15,17 17,70 17,558 0,407 -3,543 -12,552 -16,16 -190,16 -206,0 z"
       id="path650"
       style="fill:#f2f2f2" />
    <path
       d="m 6666,5068 c -14,-20 -16,-89 -16,-550 0,-623 -12,-568 123,-568 68,0 87,3 100,18 15,16 17,58 19,343 l 3,324 42,-67 c 132,-208 388,-595 401,-605 10,-8 47,-13 97,-13 67,0 85,3 98,18 15,17 17,70 17,558 0,407 -3,543 -12,552 -17,17 -192,16 -207,-1 -7,-9 -12,-120 -13,-342 l -3,-329 -156,240 c -86,131 -187,285 -223,342 l -66,102 h -95 c -86,0 -95,-2 -109,-22 z"
       id="path652"
       style="fill:#f2f2f2" />
    <path
       d="m 7822,5078 c -9,-9 -12,-147 -12,-560 0,-531 1,-548 19,-558 13,-6 145,-10 360,-10 401,0 381,-5 381,104 0,109 9,106 -280,109 l -245,2 -3,133 -3,132 h 209 c 250,0 242,-4 242,112 0,51 -4,79 -13,87 -9,7 -89,12 -223,13 l -209,3 -3,118 -3,117 h 245 c 290,0 276,-5 276,105 0,54 -4,78 -16,89 -13,14 -60,16 -363,16 -256,0 -350,-3 -359,-12 z"
       id="path654"
       style="fill:#f2f2f2" />
  </g>
</svg>
