<?xml version="1.0" encoding="UTF-8" standalone="no"?>
<!-- Created with Inkscape (http://www.inkscape.org/) -->

<svg
   width="48"
   height="48"
   viewBox="0 0 48 48"
   version="1.1"
   id="svg1"
   xml:space="preserve"
   inkscape:version="1.3.2 (091e20ef0f, 2023-11-25)"
   sodipodi:docname="linuxIcon.svg"
   xmlns:inkscape="http://www.inkscape.org/namespaces/inkscape"
   xmlns:sodipodi="http://sodipodi.sourceforge.net/DTD/sodipodi-0.dtd"
   xmlns="http://www.w3.org/2000/svg"
   xmlns:svg="http://www.w3.org/2000/svg"><sodipodi:namedview
     id="namedview1"
     pagecolor="#ffffff"
     bordercolor="#000000"
     borderopacity="0.25"
     inkscape:showpageshadow="2"
     inkscape:pageopacity="0.0"
     inkscape:pagecheckerboard="0"
     inkscape:deskcolor="#d1d1d1"
     inkscape:document-units="px"
     inkscape:zoom="17.729167"
     inkscape:cx="29.3302"
     inkscape:cy="24.733255"
     inkscape:window-width="1920"
     inkscape:window-height="1048"
     inkscape:window-x="0"
     inkscape:window-y="0"
     inkscape:window-maximized="1"
     inkscape:current-layer="layer1" /><defs
     id="defs1" /><g
     inkscape:label="Camada 1"
     inkscape:groupmode="layer"
     id="layer1"><path
       d="M 25.386719,4.9179687 C 24.358813,4.9201385 23.638966,5.049495 22.765625,5.3886719 21.092254,6.0385531 20.253,6.9063348 19.791016,8.46875 c -0.340311,1.150911 -0.385989,2.249183 -0.199219,4.677734 0.140261,1.823815 0.154754,4.352703 0.0293,4.957032 -0.114463,0.551347 -0.290625,0.844757 -1.326172,2.222656 -2.286543,3.042471 -2.303023,3.074201 -3.857422,7.398437 -0.200365,0.557399 -0.485318,1.255855 -0.634766,1.552735 -0.484008,0.961485 -0.600715,1.691389 -0.40625,2.535156 0.06955,0.301756 0.0617,0.356128 -0.06055,0.423828 -0.243795,0.135006 -0.567804,0.523695 -0.884766,1.066406 -0.506884,0.867904 -0.967462,1.161507 -2.441406,1.546875 -1.0985552,0.287222 -1.4206466,0.46567 -1.6171879,0.898438 -0.1910895,0.420761 -0.1831963,0.637477 0.050781,1.566406 0.2325174,0.923132 0.2141127,1.180243 -0.1679688,2.376953 -0.410646,1.286176 -0.3476804,1.678645 0.3339844,2.078125 0.5180508,0.303599 1.1662587,0.4768 2.712891,0.728516 1.615588,0.26294 1.814112,0.318378 4.132812,1.11914 0.943287,0.325762 1.996943,0.649984 2.339844,0.720704 0.757824,0.156289 1.527965,0.109718 1.976562,-0.119141 0.348055,-0.177565 0.827535,-0.637315 0.988282,-0.947266 0.09149,-0.176411 0.192206,-0.215456 0.830078,-0.328125 2.068808,-0.36543 4.137068,-0.504197 5.560547,-0.373047 1.483198,0.136656 2.870367,0.384503 2.960937,0.529297 0.526822,0.84225 0.958031,1.242044 1.587891,1.476563 0.189712,0.07064 0.541696,0.09848 1.0625,0.08203 0.945719,-0.02988 1.430478,-0.228286 2.171875,-0.892578 0.937237,-0.83977 2.005833,-1.530856 4.43164,-2.863281 1.672648,-0.918736 2.000266,-1.149275 2.296875,-1.619141 0.316272,-0.501003 0.236432,-1.187377 -0.179687,-1.548828 -0.07943,-0.06899 -0.396187,-0.256751 -0.703125,-0.416016 -1.158212,-0.600973 -1.534204,-1.141384 -1.621094,-2.326172 -0.06183,-0.843075 -0.188592,-1.211466 -0.599609,-1.755859 l -0.31836,-0.423828 0.125,-0.59375 C 38.812515,30.108218 38.695148,28.512502 37.966797,26.845703 37.315876,25.356099 35.674503,22.708252 33.566406,19.748047 31.905363,17.415595 31.723098,16.845173 31.591797,13.537109 31.498867,11.195898 31.248632,9.8003429 30.677734,8.4589844 29.692239,6.1434923 27.852313,4.9127489 25.386719,4.9179687 Z"
       style="display:inline;fill:#ababab"
       id="path8" /></g></svg>
